<mxfile host="app.diagrams.net" modified="2023-10-10T07:24:51.071Z" agent="Mozilla/5.0 (Windows NT 10.0; Win64; x64) AppleWebKit/537.36 (KHTML, like Gecko) Chrome/117.0.0.0 Safari/537.36" etag="394AaW2SnrV4zU_fuvNb" version="21.2.2" type="device">
  <diagram name="PÃ¡gina-1" id="vs-AmVueQTAI8TK37XFd">
    <mxGraphModel dx="880" dy="470" grid="1" gridSize="10" guides="1" tooltips="1" connect="1" arrows="1" fold="1" page="1" pageScale="1" pageWidth="827" pageHeight="1169" math="0" shadow="0">
      <root>
        <mxCell id="0" />
        <mxCell id="1" parent="0" />
        <mxCell id="GY3cDzx-ZLsmJWomNjCc-1" value="&amp;lt;&amp;lt;device&amp;gt;&amp;gt;&lt;br&gt;AndroidMobileDevice" style="verticalAlign=top;align=left;spacingTop=8;spacingLeft=2;spacingRight=12;shape=cube;size=10;direction=south;fontStyle=4;html=1;whiteSpace=wrap;" parent="1" vertex="1">
          <mxGeometry x="111.75" y="345" width="210" height="170" as="geometry" />
        </mxCell>
        <mxCell id="GY3cDzx-ZLsmJWomNjCc-2" value="&amp;lt;&amp;lt;executionEnviroment&amp;gt;&amp;gt;&lt;br&gt;Android" style="verticalAlign=top;align=left;spacingTop=8;spacingLeft=2;spacingRight=12;shape=cube;size=10;direction=south;fontStyle=4;html=1;whiteSpace=wrap;" parent="1" vertex="1">
          <mxGeometry x="131.75" y="395" width="170" height="110" as="geometry" />
        </mxCell>
        <mxCell id="GY3cDzx-ZLsmJWomNjCc-4" value="&amp;lt;&amp;lt;device&amp;gt;&amp;gt;&lt;br&gt;database" style="verticalAlign=top;align=left;spacingTop=8;spacingLeft=2;spacingRight=12;shape=cube;size=10;direction=south;fontStyle=4;html=1;whiteSpace=wrap;" parent="1" vertex="1">
          <mxGeometry x="490" y="345" width="210" height="175" as="geometry" />
        </mxCell>
        <mxCell id="GY3cDzx-ZLsmJWomNjCc-5" value="&amp;lt;&amp;lt;executionEnviroment&amp;gt;&amp;gt;&lt;br&gt;Postgresql" style="verticalAlign=top;align=left;spacingTop=8;spacingLeft=2;spacingRight=12;shape=cube;size=10;direction=south;fontStyle=4;html=1;whiteSpace=wrap;" parent="1" vertex="1">
          <mxGeometry x="500" y="395" width="175" height="115" as="geometry" />
        </mxCell>
        <mxCell id="GY3cDzx-ZLsmJWomNjCc-17" value="&amp;lt;&amp;lt;device&amp;gt;&amp;gt;&lt;br&gt;AppServer" style="verticalAlign=top;align=center;spacingTop=8;spacingLeft=2;spacingRight=12;shape=cube;size=10;direction=south;fontStyle=4;html=1;whiteSpace=wrap;" parent="1" vertex="1">
          <mxGeometry x="280" y="93" width="250" height="165" as="geometry" />
        </mxCell>
        <mxCell id="VhYglbu5ru5N0iP9MS-4-1" value="&amp;lt;&amp;lt;executionEnviroment&amp;gt;&amp;gt;&lt;br&gt;Windows" style="verticalAlign=top;align=left;spacingTop=8;spacingLeft=2;spacingRight=12;shape=cube;size=10;direction=south;fontStyle=4;html=1;whiteSpace=wrap;" vertex="1" parent="1">
          <mxGeometry x="299" y="138" width="181" height="110" as="geometry" />
        </mxCell>
        <mxCell id="VhYglbu5ru5N0iP9MS-4-3" value="&amp;lt;&amp;lt;artifact&amp;gt;&amp;gt;&lt;br&gt;&lt;br&gt;&lt;b&gt;TutoriaUcApp.dart&lt;/b&gt;" style="html=1;align=center;verticalAlign=middle;dashed=0;whiteSpace=wrap;" vertex="1" parent="1">
          <mxGeometry x="321.75" y="185" width="135.5" height="50" as="geometry" />
        </mxCell>
        <mxCell id="VhYglbu5ru5N0iP9MS-4-4" value="&amp;lt;&amp;lt;artifact&amp;gt;&amp;gt;&lt;br&gt;&lt;br&gt;&lt;b&gt;TutoriaUcApp.apk&lt;/b&gt;" style="html=1;align=center;verticalAlign=middle;dashed=0;whiteSpace=wrap;" vertex="1" parent="1">
          <mxGeometry x="149" y="445" width="135.5" height="50" as="geometry" />
        </mxCell>
        <mxCell id="VhYglbu5ru5N0iP9MS-4-5" value="&amp;lt;&amp;lt;artifact&amp;gt;&amp;gt;&lt;br&gt;&lt;br&gt;&lt;b&gt;TutoriaUcApp.sql&lt;/b&gt;" style="html=1;align=center;verticalAlign=middle;dashed=0;whiteSpace=wrap;" vertex="1" parent="1">
          <mxGeometry x="516.75" y="446" width="135.5" height="50" as="geometry" />
        </mxCell>
        <mxCell id="VhYglbu5ru5N0iP9MS-4-10" value="&amp;lt;&amp;lt;TCP/IP&amp;gt;&amp;gt;" style="text;html=1;align=center;verticalAlign=middle;resizable=0;points=[];autosize=1;strokeColor=none;fillColor=none;rotation=-50;" vertex="1" parent="1">
          <mxGeometry x="220" y="290" width="90" height="30" as="geometry" />
        </mxCell>
        <mxCell id="VhYglbu5ru5N0iP9MS-4-12" value="" style="endArrow=none;html=1;rounded=0;" edge="1" parent="1">
          <mxGeometry width="50" height="50" relative="1" as="geometry">
            <mxPoint x="251.75" y="345" as="sourcePoint" />
            <mxPoint x="320" y="260" as="targetPoint" />
          </mxGeometry>
        </mxCell>
        <mxCell id="VhYglbu5ru5N0iP9MS-4-13" value="" style="endArrow=none;html=1;rounded=0;" edge="1" parent="1" source="GY3cDzx-ZLsmJWomNjCc-4">
          <mxGeometry width="50" height="50" relative="1" as="geometry">
            <mxPoint x="530" y="340" as="sourcePoint" />
            <mxPoint x="488.25" y="258" as="targetPoint" />
          </mxGeometry>
        </mxCell>
        <mxCell id="VhYglbu5ru5N0iP9MS-4-16" value="&amp;lt;&amp;lt;TCP/IP&amp;gt;&amp;gt;" style="text;html=1;align=center;verticalAlign=middle;resizable=0;points=[];autosize=1;strokeColor=none;fillColor=none;rotation=60;" vertex="1" parent="1">
          <mxGeometry x="490" y="290" width="90" height="30" as="geometry" />
        </mxCell>
      </root>
    </mxGraphModel>
  </diagram>
</mxfile>
